<?xml version="1.0" encoding="UTF-8"?>
<svg width="142px" height="47px" viewBox="0 0 142 47" version="1.1" xmlns="http://www.w3.org/2000/svg" xmlns:xlink="http://www.w3.org/1999/xlink">
    <title>Rain logo</title>
    <g id="RAIN---Light" stroke="none" stroke-width="1" fill="none" fill-rule="evenodd">
        <g id="login" transform="translate(-44.000000, -249.000000)">
            <g id="Rain-logo" transform="translate(44.000000, 249.000000)">
                <path d="M67.071599,33 L67.071599,27.1680556 L72.5632458,27.1680556 L77.4033413,33 L80.7541766,33 L80.7541766,32.1972222 L76.5889021,27.1680556 L77.49642,27.1680556 C79.2881862,27.1680556 80.7541766,25.6805556 80.7541766,23.8861111 L80.7541766,19.3055556 C80.7541766,17.5111111 79.2881862,16.0236111 77.49642,16.0236111 L64,16.0236111 L64,33 L67.071599,33 Z M77.49642,24.0513889 L67.2344869,24.0513889 C67.1414081,24.0513889 67.071599,23.9805556 67.071599,23.8861111 L67.071599,19.3055556 C67.071599,19.2111111 67.1414081,19.1402778 67.2344869,19.1402778 L77.49642,19.1402778 C77.5894988,19.1402778 77.6593079,19.2111111 77.6593079,19.3055556 L77.6593079,23.8861111 C77.6593079,23.9805556 77.5894988,24.0513889 77.49642,24.0513889 Z M92.1563246,33 L92.1563246,27.2861111 L102.744033,27.2861111 L102.744033,33 L105.838902,33 L105.838902,19.2819444 C105.838902,17.4638889 104.372912,16 102.581146,16 L92.3192124,16 C90.5274463,16 89.0847255,17.4638889 89.0847255,19.2819444 L89.0847255,33 L92.1563246,33 Z M102.744033,24.1694444 L92.1563246,24.1694444 L92.1563246,19.2819444 C92.1563246,19.1875 92.2261337,19.1166667 92.3192124,19.1166667 L102.581146,19.1166667 C102.674224,19.1166667 102.744033,19.1875 102.744033,19.2819444 L102.744033,24.1694444 Z M117.403938,33 L117.403938,16 L114.332339,16 L114.332339,33 L117.403938,33 Z M128.317422,33 L128.317422,20.5333333 L138.649165,33 L142,33 L142,16 L138.905131,16 L138.905131,28.4666667 L128.596659,16 L125.245823,16 L125.245823,33 L128.317422,33 Z" id="RAIN" fill="#120033"></path>
                <g id="Icons/rain">
                    <path d="M23.5000538,0 C36.4786612,0 47,10.5213388 47,23.5000538 C47,36.4787689 36.4786612,47 23.5000538,47 C10.5214464,47 0,36.4786612 0,23.5000538 C0,10.5214464 10.5213388,0 23.5000538,0 Z" id="circle" fill="#120033"></path>
                    <g id="Rain/symbol/dark" transform="translate(7.833333, 7.793893)">
                        <path d="M15.6666966,2.61111111 C22.877034,2.61111111 28.7222222,8.45629931 28.7222222,15.6666966 C28.7222222,22.8770938 22.877034,28.7222222 15.6666966,28.7222222 C8.45635912,28.7222222 2.61111111,22.877034 2.61111111,15.6666966 C2.61111111,8.45635912 8.45629931,2.61111111 15.6666966,2.61111111 Z" id="circle" fill-opacity="0.2" fill="#FFFFFF"></path>
                        <rect id="size" x="0" y="0" width="31.3154183" height="31.3070396"></rect>
                        <polygon id="Path-5" fill="#FFFFFF" points="10.7928857 7.84696441 31.3333333 7.84696441 24.0690201 15.4399141 24.0690201 11.2924458 13.6505364 21.3592567 15.6666667 12.1810744 0 28.7358533"></polygon>
                    </g>
                </g>
            </g>
        </g>
    </g>
</svg>