<?xml version="1.0" encoding="UTF-8"?>
<svg width="144px" height="37px" viewBox="0 0 144 37" version="1.1" xmlns="http://www.w3.org/2000/svg" xmlns:xlink="http://www.w3.org/1999/xlink">
    <title>tarento_logo</title>
    <g id="RAIN---Light" stroke="none" stroke-width="1" fill="none" fill-rule="evenodd">
        <g id="login" transform="translate(-43.000000, -28.000000)">
            <g id="tarento_logo" transform="translate(43.000000, 28.000000)">
                <g id="Tarento/symbol/light" transform="translate(0.229508, 0.269231)">
                    <path d="M18.1656545,17.9825048 L4.54921341,8.69492231 L4.54921341,25.474688 L18.1686322,34.7640936 L31.7822611,25.474688 L31.7822611,8.69492231 L18.1656545,17.9825048 Z M29.0618513,13.7592643 L29.0618513,17.1911237 L18.1686322,24.6238083 L7.26962325,17.1911237 L7.26962325,13.7592643 L18.1686322,21.1921146 L29.0618513,13.7592643 Z M29.0618513,20.6977293 L29.0618513,24.123788 L18.1686322,31.5622734 L7.26962325,24.123788 L7.26962325,20.6977293 L18.1686322,28.1305797 L29.0618513,20.6977293 Z" id="other-sides" fill="#1E8C8B"></path>
                    <path d="M24.28369,6.8669728 L26.9639016,8.69485601 L18.1657869,14.6962595 L15.4885529,12.8683763 L24.28369,6.8669728 Z M18.6760064,3.03852783 L21.3500973,4.86641105 L12.5549602,10.8679803 L9.87474858,9.03993133 L18.6755101,3.03852783 L18.6760064,3.03852783 Z" id="winning-side" fill="#17283C"></path>
                </g>
                <path d="M52.0341089,9.0036309 C53.2650633,9.00067511 53.2697052,10.7797454 52.0387508,10.7831277 L46.437212,10.7970795 C46.4486058,15.4396583 46.4857412,20.1596063 46.497135,24.802185 C46.498823,25.4469289 45.9721754,25.7576743 45.5451182,25.7585238 C45.118061,25.7597883 44.6399426,25.4511568 44.6382546,24.8068357 L44.6036512,10.8017302 L39.02701,10.815682 C37.8462728,10.8186415 37.8420528,9.03914835 39.02279,9.03618887 L52.0341089,9.0036309 Z M58.3384775,8.57518296 C58.6651003,8.57434086 58.9672475,8.72823382 59.1436407,9.06307786 L66.7424738,24.3128561 C67.3986733,25.4201245 65.5414809,26.0699418 65.0616745,25.0654097 L63.0922319,21.0722254 L53.6476002,21.0959013 L51.6232984,25.1761788 C51.1730316,26.1312453 49.513754,25.4649395 49.9635989,24.4320809 L57.5109487,9.06730569 C57.6607563,8.73161608 58.0122767,8.57603199 58.3384775,8.57518296 Z M75.1701016,8.9459312 C79.5157884,8.93497465 81.7325191,11.4568745 81.7397177,14.4746987 C81.7464449,17.0794639 80.3694808,18.9654983 77.281334,19.5151161 L81.362009,24.0181765 C82.3190898,24.9960733 80.9400157,26.1346276 80.109111,25.2598898 L75.021138,19.6237713 L70.1479595,19.636032 L70.1606193,24.6396673 C70.1631513,25.8259961 68.3295905,25.8306467 68.3266365,24.6701077 L68.2899199,9.86551975 C68.2886571,9.32393489 68.6642312,8.96203275 69.2170424,8.9607644 L75.1701016,8.9459312 Z M126.892805,8.81659063 C128.123338,8.81321318 128.127558,10.5927063 126.897025,10.5960886 L121.295065,10.6100404 C121.30688,15.2526191 121.344016,19.9725672 121.35541,24.6147231 C121.357098,25.2598898 120.83045,25.5702124 120.403393,25.5714847 C119.976336,25.5727491 119.498217,25.2641176 119.496529,24.6197965 L119.461504,10.614691 L113.885284,10.6282201 C112.704547,10.6316023 112.700327,8.8521092 113.881065,8.84872694 L126.892805,8.81659063 Z M112.072992,9.49812144 L112.10971,24.3027094 C112.113081,25.5921971 110.380377,25.7253737 109.850354,24.8240006 L100.423446,11.9257407 L100.633598,15.4847269 L100.656386,24.5893561 C100.65934,25.8530542 98.7506642,25.8834945 98.7472883,24.5940068 L98.7101494,9.81520859 C98.7076209,8.52572082 100.113281,8.31559774 100.743738,9.26855034 L110.447474,22.5274441 L110.186682,18.633191 L110.163895,9.50277205 C110.160941,8.41960232 112.07046,8.3633722 112.072992,9.49812144 Z M136.537926,8.58575599 C140.408026,9.1954089 143.405445,12.4893103 143.415609,16.7188302 C143.429076,22.0839448 139.66996,25.4974938 135.39981,25.5080929 C130.878574,25.5194785 127.252808,22.2272682 127.239275,16.7594173 C127.229176,12.7100029 129.883092,9.24741119 133.87557,8.59252052 C134.8048,8.46145783 135.658914,8.48513367 136.537926,8.58575599 Z M95.5423337,8.92063833 C96.6226365,8.91768283 96.5770612,10.56865 95.522078,10.5711867 L85.59975,10.5961308 L85.6140977,16.3992486 L95.0587294,16.3755727 C96.0639174,16.373036 96.1179325,18.0235804 95.0629493,18.0261171 L85.6183177,18.0502157 L85.6322434,23.6465926 L95.5545715,23.6216484 C96.6095547,23.6195345 96.7640042,25.3212356 95.5583694,25.3241951 L84.9832178,25.3504118 C84.280177,25.3520987 83.8265342,24.837572 83.8248462,24.2190406 L83.789816,10.0587738 C83.7881328,9.46603222 84.2392436,8.94854598 84.9422844,8.94685485 L95.5423337,8.92063833 Z M134.130876,10.3200113 C131.092947,10.8176268 129.114642,13.3243065 129.123474,16.832136 C129.134054,21.0620786 131.853801,23.7374487 135.395168,23.7285922 C138.786306,23.7201146 141.568086,21.1339517 141.557566,16.80085 C141.549096,13.4739716 139.40748,10.8227002 136.31638,10.3145152 C135.5627,10.2134701 134.833917,10.2151612 134.130876,10.3200113 Z M58.3456514,11.3346902 L54.3970603,19.4690328 L62.3098563,19.449162 L58.3456514,11.3346902 Z M75.1992191,10.6738579 L70.1255939,10.6865641 L70.1437396,18.0112774 L75.2177868,17.9985939 C78.5084904,17.9901383 79.9360937,16.4135809 79.8808126,14.4793493 C79.8508511,12.3645893 78.1135047,10.6666933 75.1992191,10.6738579 Z" id="TARENTO" fill="#17283C"></path>
            </g>
        </g>
    </g>
</svg>